<?xml version="1.0" encoding="UTF-8" standalone="no"?>
<!-- Created with Inkscape (http://www.inkscape.org/) -->

<svg
   xmlns:dc="http://purl.org/dc/elements/1.1/"
   xmlns:cc="http://creativecommons.org/ns#"
   xmlns:rdf="http://www.w3.org/1999/02/22-rdf-syntax-ns#"
   xmlns:svg="http://www.w3.org/2000/svg"
   xmlns="http://www.w3.org/2000/svg"
   xmlns:sodipodi="http://sodipodi.sourceforge.net/DTD/sodipodi-0.dtd"
   xmlns:inkscape="http://www.inkscape.org/namespaces/inkscape"
   width="210mm"
   height="297mm"
   viewBox="0 0 210 297"
   version="1.1"
   id="svg11658"
   inkscape:version="0.92.1 r15371"
   sodipodi:docname="logo_white.svg">
  <defs
     id="defs11652" />
  <sodipodi:namedview
     id="base"
     pagecolor="#ffffff"
     bordercolor="#666666"
     borderopacity="1.0"
     inkscape:pageopacity="0.0"
     inkscape:pageshadow="2"
     inkscape:zoom="0.7"
     inkscape:cx="249.75911"
     inkscape:cy="458.61703"
     inkscape:document-units="mm"
     inkscape:current-layer="layer1"
     showgrid="false"
     inkscape:window-width="1920"
     inkscape:window-height="1017"
     inkscape:window-x="1358"
     inkscape:window-y="-8"
     inkscape:window-maximized="1"
     inkscape:measure-start="852.857,344.286"
     inkscape:measure-end="0,0" />
  <metadata
     id="metadata11655">
    <rdf:RDF>
      <cc:Work
         rdf:about="">
        <dc:format>image/svg+xml</dc:format>
        <dc:type
           rdf:resource="http://purl.org/dc/dcmitype/StillImage" />
        <dc:title></dc:title>
      </cc:Work>
    </rdf:RDF>
  </metadata>
  <g
     inkscape:label="Layer 1"
     inkscape:groupmode="layer"
     id="layer1">
    <g
       id="g5105"
       transform="translate(222.25,-29.104167)"
       style="fill:#ffffff;fill-opacity:1">
      <path
         sodipodi:nodetypes="csscsscascssasscsscascasczssccscaccssssazsaccsascscccsazccssscazssccssazaasscaazascssscssssc"
         inkscape:connector-curvature="0"
         id="path4509-7-0"
         d="m -195.11393,184.65557 c 0.49501,-2.11508 3.00487,-5.98035 5.32415,-8.16223 3.25859,-3.06554 7.2276,-5.35681 11.42569,-6.87422 5.42438,-1.96067 11.55713,-2.21528 17.26883,-2.89788 1.61046,-0.17211 4.15971,-0.25984 5.09871,-0.40211 0.35857,-0.0543 9.08517,-17.03112 13.50677,-25.47236 1.76704,-3.37344 3.41098,-6.8547 5.26711,-10.09825 -2.94703,-0.59002 -4.89356,-0.70234 -7.32919,-1.12204 -5.24118,-0.90311 -11.8543,-2.2692 -15.67006,-3.00329 -3.86479,-0.74351 -5.99362,-1.21409 -7.27066,-0.6676 -2.44816,0.89559 -2.3846,4.86837 -1.41077,6.76711 1.19891,2.33759 -0.39349,2.4714 -0.86111,2.20145 -2.32192,-1.34044 -2.39698,-6.81834 -0.37168,-9.0636 1.77615,-1.96902 5.62102,-0.88516 7.93999,-0.49233 0.65865,0.11155 12.00876,2.52746 18.1747,3.3724 2.39424,0.32809 5.06615,0.61662 7.47688,0.78595 1.88746,-2.63565 3.23959,-5.85952 6.18931,-7.23749 2.41234,-1.12694 4.05363,0.32356 3.39984,2.47541 -0.91133,2.99945 -5.02064,5.89524 -8.72127,6.06841 -0.69169,1.26388 -1.48389,2.51721 -2.16392,3.80968 -0.80039,1.52122 -1.24162,2.58633 -2.25295,4.63862 -1.01134,2.05229 -2.92237,5.65989 -4.04868,7.79605 -1.12631,2.1362 -1.74114,3.45541 -2.62841,5.17457 -1.57493,3.05151 -3.15183,6.09115 -4.78384,9.12386 -0.87468,1.62542 -1.43375,2.80813 -2.65971,4.85685 2.24999,-0.19399 8.53632,-1.72559 12.934,-2.86446 4.39769,-1.13886 9.94162,-2.80316 13.42875,-3.99058 2.72993,-0.92957 4.75383,-1.29717 6.59685,-4.61883 1.92673,-3.47251 4.57414,-8.50146 8.62216,-11.34147 2.78884,-1.58236 3.66871,1.1652 3.09287,3.0752 -0.77826,3.32468 -4.54045,6.11886 -6.51882,7.76364 -2.05357,1.70731 -4.26856,3.20334 -6.13804,4.18756 -3.07511,4.48514 -5.93461,9.04674 -8.95647,13.53368 -2.29112,3.40193 -4.83242,6.83313 -6.95564,10.14989 4.59474,2.72743 9.53365,5.86346 14.59769,8.16184 5.05231,2.08045 10.21244,4.03641 15.52075,5.26796 9.337237,2.16628 19.209321,-0.48469 27.672231,-4.90077 4.68636,-2.44544 8.99741,-5.40176 12.77407,-9.08621 1.95553,-1.90781 5.27037,-5.26402 6.90249,-7.33031 0,0 -2.4404,3.898 -3.91179,5.65563 -3.69104,4.40907 -7.62235,9.35503 -12.23998,12.15543 -4.61764,2.8004 -10.79904,5.69532 -17.26468,5.88037 -4.650793,0.13311 -10.794701,-0.58164 -16.001611,-1.90059 -6.80701,-1.72426 -13.36137,-4.53461 -19.57917,-7.77382 -3.20192,-1.46884 -5.93056,-3.61961 -9.14069,-5.13218 -2.38707,3.4336 -2.08758,3.2974 -5.49585,7.65567 -1.55462,1.98792 -5.13564,6.57497 -8.90617,7.41301 -2.19834,0.48858 -4.98411,-0.18666 -6.53451,-1.71561 -2.12954,-2.10002 -2.34514,-5.33792 -1.27816,-8.0631 0.7865,-2.81104 2.50339,-5.101 4.73944,-6.79608 2.80767,-2.12845 7.04135,-2.96934 10.54682,-2.23224 2.17383,0.44257 4.22568,1.06278 6.20594,2.08857 5.24194,-7.20074 10.60981,-14.57997 15.21201,-22.21357 -1.36467,0.42479 -2.9167,1.24815 -4.76407,1.89511 0,0 -4.211,1.30451 -6.33273,1.90092 -3.22793,0.90735 -6.47279,1.76709 -9.73016,2.55129 -3.25736,0.78421 -6.49445,1.34806 -9.81,2.15332 -1.03094,1.8678 -3.47915,6.74854 -3.47915,6.74854 0,0 -5.89928,10.88615 -10.35147,15.99914 -2.31046,2.65337 -4.82407,5.11096 -8.157,6.56929 -4.14625,1.81417 -9.14817,1.88275 -13.25516,-0.13698 -4.44259,-2.18474 -6.49346,-7.63161 -4.94448,-12.28622 z m 5.24274,5.52773 c 0.72124,1.81522 2.13421,3.48004 3.75849,4.49562 1.62428,1.0156 3.54573,1.4928 5.35561,1.21729 4.455,-0.67818 7.98445,-3.21789 11.27617,-7.59632 4.30113,-5.72108 8.79911,-12.36705 12.11679,-19.03822 0.37585,-0.69932 0.60693,-1.24019 0.60693,-1.24019 0,0 -2.72247,0.22686 -3.96629,0.31814 -6.18536,0.45379 -12.22598,1.2178 -18.04443,3.57788 -2.86155,1.16073 -5.68931,2.65226 -7.72234,4.93154 -1.88325,2.11138 -3.30679,4.89493 -3.72417,7.62699 -0.41741,2.73209 -0.36049,3.9361 0.34324,5.70727 z m 33.32892,5.83491 c 1.52333,0.94507 3.77099,0.31025 5.35124,-0.53623 1.94067,-1.03952 2.60511,-1.84372 4.94068,-4.37809 1.50604,-1.63422 6.07859,-8.23079 6.22492,-8.5984 -1.54925,-0.94334 -3.3256,-1.24103 -5.04568,-1.13078 -2.89563,0.18561 -5.88151,1.20349 -8.18147,2.97247 -2.30679,1.77424 -4.60244,4.9454 -4.98725,7.16589 -0.38481,2.22049 0.3339,3.65911 1.69756,4.50514 z m 22.996,-66.97469 c 1.99378,-0.84535 3.97215,-2.01594 4.52863,-3.85855 0.59648,-1.94742 -1.03286,-1.68722 -1.56673,-1.33041 -0.85608,0.57219 -2.82606,3.14116 -3.65519,4.41952 -0.46892,0.72298 -1.29717,1.61333 0.69329,0.76944 z m 15.29267,25.10464 c 1.94749,-1.51595 4.81567,-5.08957 5.24829,-5.71412 1.34907,-1.9476 1.61464,-4.92422 -0.627,-2.53005 -2.31066,2.46787 -4.47022,5.7786 -6.18542,8.579 -0.44104,0.72009 -0.5154,0.99978 -0.35881,1.00653 0.24611,0.0106 1.06272,-0.65318 1.92294,-1.34136 z"
         style="fill:#ffffff;fill-opacity:1;stroke:#f6f400;stroke-width:0;stroke-miterlimit:4;stroke-dasharray:none;stroke-opacity:1" />
      <path
         sodipodi:nodetypes="ccsc"
         inkscape:connector-curvature="0"
         id="path5737-2-0"
         d="m -155.46057,172.44729 c 5.95234,1.83672 58.012847,-11.10801 67.146331,-10.10532 -7.447903,0.48406 -23.381771,3.76983 -39.499311,6.92881 -13.23216,2.59345 -25.87759,6.52319 -27.64702,3.17651 z"
         style="fill:#ffffff;fill-opacity:1;stroke:#000000;stroke-width:0;stroke-linecap:butt;stroke-linejoin:miter;stroke-miterlimit:4;stroke-dasharray:none;stroke-opacity:1" />
    </g>
  </g>
</svg>
