<svg width="28" height="28" viewBox="0 0 28 28" version="1.1" xmlns="http://www.w3.org/2000/svg" xmlns:xlink="http://www.w3.org/1999/xlink">
<title>Vector</title>
<desc>Created using Figma</desc>
<g id="Canvas" transform="translate(6103 -17351)">
<g id="Vector">
<use xlink:href="#path0_fill" transform="translate(-6103 17351)" fill="#FFFFFF"/>
</g>
</g>
<defs>
<path id="path0_fill" d="M 27.7073 13.2933L 14.7073 0.29325C 14.3163 -0.09775 13.6843 -0.09775 13.2933 0.29325L 0.29325 13.2933C -0.09775 13.6843 -0.09775 14.3163 0.29325 14.7073C 0.68425 15.0983 1.31625 15.0983 1.70725 14.7073L 14.0002 2.41425L 22.0142 10.4283C 22.0132 10.4533 22.0002 10.4752 22.0002 10.5002L 22.0002 25.5002L 6.00025 25.5002L 6.00025 15.5002C 6.00025 14.9472 5.55225 14.5002 5.00025 14.5002C 4.44825 14.5002 4.00025 14.9472 4.00025 15.5002L 4.00025 26.5002C 4.00025 27.0532 4.44825 27.5002 5.00025 27.5002L 23.0002 27.5002C 23.5532 27.5002 24.0002 27.0532 24.0002 26.5002L 24.0002 12.4142L 26.2932 14.7073C 26.4882 14.9023 26.7442 15.0002 27.0002 15.0002C 27.2562 15.0002 27.5123 14.9023 27.7073 14.7073C 28.0983 14.3163 28.0983 13.6843 27.7073 13.2933Z"/>
</defs>
</svg>
