<svg width="28" height="28" viewBox="0 0 28 28" version="1.1" xmlns="http://www.w3.org/2000/svg" xmlns:xlink="http://www.w3.org/1999/xlink">
<title>location</title>
<desc>Created using Figma</desc>
<g id="Canvas" transform="translate(5946 -17482)">
<g id="location">
<g id="Group">
<g id="Group">
<g id="Vector">
<use xlink:href="#path0_fill" transform="translate(-5942 17482)" fill="#FFFFFF"/>
</g>
</g>
<g id="Group">
<g id="Vector">
<use xlink:href="#path1_fill" transform="translate(-5936 17488)" fill="#FFFFFF"/>
</g>
</g>
<g id="Group">
<g id="Vector">
<use xlink:href="#path2_fill" transform="translate(-5946 17501)" fill="#FFFFFF"/>
</g>
</g>
</g>
</g>
</g>
<defs>
<path id="path0_fill" d="M 10 25C 9.77 25 9.539 24.921 9.352 24.762C 9.11 24.556 3.41 19.662 1.032 14.324C 0.807 13.82 1.034 13.228 1.539 13.004C 2.042 12.78 2.634 13.006 2.859 13.511C 4.598 17.416 8.436 21.21 9.983 22.641C 12.713 19.991 18 14.069 18 10.23C 18 5.692 14.411 2 10 2C 5.589 2 2 5.692 2 10.23C 2 10.782 1.552 11.23 1 11.23C 0.448 11.23 0 10.782 0 10.23C 0 4.589 4.486 0 10 0C 15.514 0 20 4.589 20 10.23C 20 16.142 11.056 24.389 10.675 24.738C 10.484 24.912 10.242 25 10 25Z"/>
<path id="path1_fill" d="M 4 8C 1.794 8 0 6.206 0 4C 0 1.794 1.794 0 4 0C 6.206 0 8 1.794 8 4C 8 6.206 6.206 8 4 8ZM 4 2C 2.897 2 2 2.897 2 4C 2 5.103 2.897 6 4 6C 5.103 6 6 5.103 6 4C 6 2.897 5.103 2 4 2Z"/>
<path id="path2_fill" d="M 27 9.00073L 1 9.00073C 0.644004 9.00073 0.314004 8.81173 0.135004 8.50273C -0.0439958 8.19373 -0.0449958 7.81473 0.132004 7.50473L 4.132 0.504727C 4.406 0.0257265 5.017 -0.142273 5.496 0.132727C 5.975 0.406727 6.142 1.01773 5.868 1.49673L 2.723 7.00073L 25.276 7.00073L 22.131 1.49673C 21.857 1.01773 22.024 0.406727 22.503 0.132727C 22.982 -0.143273 23.593 0.0257265 23.867 0.504727L 27.867 7.50473C 28.044 7.81473 28.043 8.19373 27.864 8.50273C 27.686 8.81173 27.356 9.00073 27 9.00073Z"/>
</defs>
</svg>
