<svg width="28" height="28" viewBox="0 0 28 28" version="1.1" xmlns="http://www.w3.org/2000/svg" xmlns:xlink="http://www.w3.org/1999/xlink">
<title>phone</title>
<desc>Created using Figma</desc>
<g id="Canvas" transform="translate(5656 -17378)">
<g id="phone">
<g id="Group">
<g id="Group">
<g id="Vector">
<use xlink:href="#path0_fill" transform="translate(-5656 17378)" fill="#FFFFFF"/>
</g>
</g>
<g id="Group">
<g id="Vector">
<use xlink:href="#path1_fill" transform="translate(-5654.53 17390.4)" fill="#FFFFFF"/>
</g>
</g>
<g id="Group">
<g id="Vector">
<use xlink:href="#path2_fill" transform="translate(-5649.29 17392.3)" fill="#FFFFFF"/>
</g>
</g>
</g>
</g>
</g>
<defs>
<path id="path0_fill" d="M 12.6261 16.3827C 12.3701 16.3827 12.1141 16.2847 11.9191 16.0897L 7.7481 11.9197C 7.5601 11.7317 7.4551 11.4777 7.4551 11.2127C 7.4551 10.9477 7.5601 10.6927 7.7481 10.5057L 10.1821 8.07273C 10.9421 7.31273 10.9421 6.07573 10.1821 5.31573L 7.4021 2.53573C 6.6651 1.79973 5.3811 1.79873 4.6441 2.53573C 4.6001 2.57973 4.5511 2.61973 4.4991 2.65573C 4.3841 2.73573 1.5931 4.73173 2.0511 8.85373C 2.1121 9.40273 1.7171 9.89673 1.1681 9.95773C 0.624102 10.0207 0.125102 9.62373 0.0641022 9.07473C -0.489898 4.09673 2.7131 1.48773 3.2911 1.06073C 4.7881 -0.375272 7.3421 -0.351272 8.8151 1.12073L 11.5951 3.90073C 13.1351 5.44073 13.1351 7.94573 11.5951 9.48573L 9.8701 11.2127L 13.3331 14.6757C 13.7241 15.0667 13.7241 15.6987 13.3331 16.0897C 13.1381 16.2857 12.8821 16.3827 12.6261 16.3827Z"/>
<path id="path1_fill" d="M 6.28528 8.87909C 6.02928 8.87909 5.77328 8.78109 5.57828 8.58609C 3.12128 6.12909 1.28228 3.73109 0.111279 1.45809C -0.141721 0.967092 0.0512792 0.364092 0.542279 0.111092C 1.03528 -0.141908 1.63628 0.0520917 1.88928 0.542092C 2.96528 2.63109 4.68128 4.86209 6.99228 7.17209C 7.38328 7.56309 7.38328 8.19509 6.99228 8.58609C 6.79628 8.78209 6.54128 8.87909 6.28528 8.87909Z"/>
<path id="path2_fill" d="M 13.2773 13.6263C 9.34025 13.6263 4.97825 11.2572 0.29325 6.57125C -0.0977496 6.18025 -0.0977496 5.54825 0.29325 5.15725C 0.68425 4.76625 1.31625 4.76625 1.70725 5.15725C 6.24625 9.69725 10.4852 11.9192 13.9912 11.5932C 17.0812 11.3012 18.5792 9.14825 18.5942 9.12525C 18.6292 9.07325 18.6693 9.02425 18.7143 8.98025C 19.0823 8.61325 19.2852 8.12225 19.2852 7.60225C 19.2852 7.08225 19.0823 6.59225 18.7143 6.22425L 15.9342 3.44325C 15.5662 3.07525 15.0762 2.87325 14.5542 2.87325C 14.0332 2.87325 13.5442 3.07525 13.1772 3.44325L 10.7423 5.87625C 10.3513 6.26725 9.71925 6.26725 9.32825 5.87625L 5.15925 1.70725C 4.76825 1.31625 4.76825 0.68425 5.15925 0.29325C 5.55025 -0.0977498 6.18225 -0.0977498 6.57325 0.29325L 10.0352 3.75525L 11.7622 2.02925C 12.5072 1.28325 13.4982 0.872251 14.5542 0.872251C 15.6102 0.872251 16.6022 1.28325 17.3482 2.02825L 20.1283 4.81025C 20.8743 5.55525 21.2852 6.54725 21.2852 7.60225C 21.2852 8.62825 20.8962 9.59525 20.1882 10.3332C 19.8242 10.8252 17.8612 13.2363 14.1792 13.5843C 13.8822 13.6133 13.5803 13.6263 13.2773 13.6263Z"/>
</defs>
</svg>
