<svg width="29" height="28" viewBox="0 0 29 28" version="1.1" xmlns="http://www.w3.org/2000/svg" xmlns:xlink="http://www.w3.org/1999/xlink">
<title>time</title>
<desc>Created using Figma</desc>
<g id="Canvas" transform="translate(5809 -17386)">
<g id="time">
<g id="Group">
<g id="Group">
<g id="Vector">
<use xlink:href="#path0_fill" transform="translate(-5809 17386)" fill="#FFFFFF"/>
</g>
</g>
<g id="Group">
<g id="Vector">
<use xlink:href="#path1_fill" transform="translate(-5795.99 17391)" fill="#FFFFFF"/>
</g>
</g>
</g>
</g>
</g>
<defs>
<path id="path0_fill" d="M 14.0128 28C 10.2728 28 6.75776 26.544 4.11376 23.899C -0.208239 19.578 -1.23524 13.025 1.55976 7.595C 1.81276 7.104 2.41476 6.911 2.90676 7.163C 3.39876 7.415 3.59176 8.018 3.33876 8.51C 0.942761 13.164 1.82276 18.78 5.52776 22.485C 7.79376 24.752 10.8068 26 14.0128 26C 17.2178 26 20.2318 24.752 22.4978 22.485C 24.7638 20.218 26.0128 17.205 26.0128 14C 26.0128 10.794 24.7648 7.781 22.4978 5.515C 20.2308 3.249 17.2188 2 14.0128 2C 10.8068 2 7.79376 3.249 5.52776 5.515C 5.13676 5.906 4.50476 5.906 4.11376 5.515C 3.72276 5.124 3.72276 4.492 4.11376 4.101C 6.75776 1.457 10.2728 0 14.0128 0C 17.7528 0 21.2688 1.457 23.9118 4.101C 26.5568 6.745 28.0128 10.26 28.0128 14C 28.0128 17.739 26.5568 21.255 23.9118 23.899C 21.2688 26.544 17.7528 28 14.0128 28Z"/>
<path id="path1_fill" d="M 5.999 14C 5.78 14 5.56 13.929 5.375 13.781L 0.375 9.781C 0.138 9.591 0 9.304 0 9L 0 1C 0 0.448 0.448 0 1 0C 1.552 0 2 0.448 2 1L 2 8.52L 6.625 12.219C 7.056 12.565 7.126 13.194 6.781 13.625C 6.583 13.871 6.293 14 5.999 14Z"/>
</defs>
</svg>
